<?xml version="1.0" standalone="no"?>
<!DOCTYPE svg PUBLIC "-//W3C//DTD SVG 20010904//EN"
 "http://www.w3.org/TR/2001/REC-SVG-20010904/DTD/svg10.dtd">
<svg version="1.0" xmlns="http://www.w3.org/2000/svg"
 width="246.000000pt" height="123.000000pt" viewBox="0 0 246.000000 123.000000"
 preserveAspectRatio="xMidYMid meet">

<g transform="translate(0.000000,123.000000) scale(0.100000,-0.100000)"
fill="#000000" stroke="none">
<path d="M226 1064 c-125 -45 -177 -150 -125 -249 126 -240 692 -443 1125
-405 55 5 103 9 108 10 5 0 6 3 3 6 -3 4 -48 6 -99 5 -166 -3 -420 40 -586
100 -31 11 -96 39 -144 62 l-88 40 0 134 0 133 435 0 435 0 0 -206 0 -205 43
3 42 3 3 243 2 242 -525 0 -524 0 -3 -141 -3 -141 -47 41 c-55 49 -98 129 -98
184 0 49 30 99 78 132 41 28 28 31 -32 9z"/>
<path d="M1857 815 c-29 -17 -32 -42 -4 -37 14 2 14 -5 -3 -65 -65 -225 -64
-228 14 -220 65 6 91 22 112 65 16 34 12 65 -12 93 -12 14 -10 21 16 54 33 41
39 85 15 105 -24 20 -106 23 -138 5z m113 -24 c20 -39 -32 -121 -77 -121 -28
0 -29 14 -6 87 15 47 20 53 44 53 18 0 32 -7 39 -19z m-20 -161 c28 -53 -38
-127 -109 -121 -14 1 -10 43 9 106 9 26 15 30 50 33 31 2 41 -2 50 -18z"/>
<path d="M2076 798 c-18 -59 -53 -235 -49 -241 10 -17 22 10 47 108 14 55 28
110 32 123 5 16 2 22 -10 22 -9 0 -18 -6 -20 -12z"/>
<path d="M843 745 c0 -27 2 -38 4 -22 2 15 2 37 0 50 -2 12 -4 0 -4 -28z"/>
<path d="M787 748 c-20 -20 -27 -37 -27 -65 1 -57 38 -93 95 -93 34 0 85 50
85 84 0 35 -17 76 -35 82 -26 10 -28 -3 -5 -34 24 -33 20 -76 -10 -92 -33 -18
-78 -12 -94 12 -21 30 -20 50 5 82 30 38 19 57 -14 24z"/>
<path d="M1579 725 c42 -66 47 -103 24 -156 -65 -146 -311 -230 -673 -230
-180 0 -322 18 -470 60 -57 16 -106 28 -108 27 -13 -13 303 -116 356 -116 19
0 23 -5 20 -22 -3 -22 -8 -23 -93 -25 -49 0 -95 3 -102 8 -7 7 -14 6 -18 -1
-3 -5 -24 -10 -47 -10 -40 0 -40 0 -36 35 2 19 2 35 -2 35 -9 0 -118 -198
-112 -204 6 -7 1072 -8 1072 -2 0 3 -13 44 -30 92 -16 48 -29 89 -27 90 1 1
45 16 97 33 175 56 270 136 270 227 0 72 -44 139 -123 189 l-29 18 31 -48z
m-776 -431 c9 -10 -4 -34 -19 -34 -8 0 -14 6 -14 13 0 22 19 35 33 21z m445
-17 c2 -12 -3 -17 -17 -17 -12 0 -21 6 -21 13 0 31 32 34 38 4z m-368 4 c0
-14 -18 -23 -30 -16 -6 4 -8 11 -5 16 8 12 35 12 35 0z m280 -6 c0 -8 -4 -15
-9 -15 -13 0 -22 16 -14 24 11 11 23 6 23 -9z m-210 -5 c0 -5 -7 -10 -15 -10
-8 0 -15 5 -15 10 0 6 7 10 15 10 8 0 15 -4 15 -10z m70 0 c0 -5 -4 -10 -10
-10 -5 0 -10 5 -10 10 0 6 5 10 10 10 6 0 10 -4 10 -10z m70 0 c0 -5 -4 -10
-10 -10 -5 0 -10 5 -10 10 0 6 5 10 10 10 6 0 10 -4 10 -10z m-605 -60 c-3 -5
-17 -10 -30 -10 -13 0 -27 5 -30 10 -4 6 8 10 30 10 22 0 34 -4 30 -10z m80 0
c-3 -5 -15 -10 -26 -10 -10 0 -19 5 -19 10 0 6 12 10 26 10 14 0 23 -4 19 -10z
m70 0 c-3 -5 -15 -10 -26 -10 -10 0 -19 5 -19 10 0 6 12 10 26 10 14 0 23 -4
19 -10z m70 0 c-3 -5 -15 -10 -26 -10 -10 0 -19 5 -19 10 0 6 12 10 26 10 14
0 23 -4 19 -10z m75 0 c0 -5 -7 -10 -15 -10 -8 0 -15 5 -15 10 0 6 7 10 15 10
8 0 15 -4 15 -10z m75 0 c-3 -5 -13 -10 -21 -10 -8 0 -14 5 -14 10 0 6 9 10
21 10 11 0 17 -4 14 -10z m75 0 c0 -5 -7 -10 -15 -10 -8 0 -15 5 -15 10 0 6 7
10 15 10 8 0 15 -4 15 -10z m72 -2 c-9 -9 -15 -9 -24 0 -9 9 -7 12 12 12 19 0
21 -3 12 -12z m108 2 c0 -5 -4 -10 -9 -10 -6 0 -13 5 -16 10 -3 6 1 10 9 10 9
0 16 -4 16 -10z m70 0 c0 -5 -4 -10 -10 -10 -5 0 -10 5 -10 10 0 6 5 10 10 10
6 0 10 -4 10 -10z m90 0 c0 -5 -9 -10 -20 -10 -11 0 -20 5 -20 10 0 6 9 10 20
10 11 0 20 -4 20 -10z"/>
<path d="M2283 675 c-44 -41 -59 -44 -67 -10 -4 16 -16 27 -33 31 -37 10 -73
-33 -73 -85 0 -69 58 -82 93 -21 10 16 27 35 38 40 17 10 19 7 19 -24 0 -43
28 -63 61 -46 36 20 31 4 -11 -34 -22 -20 -44 -47 -49 -59 -17 -48 21 -105 52
-79 8 7 23 45 33 85 14 60 24 78 59 112 23 22 29 30 15 18 -26 -23 -50 -30
-50 -15 0 5 6 30 14 56 14 46 14 48 -4 43 -11 -3 -24 1 -31 9 -17 20 -25 18
-66 -21z m-83 -25 c0 -24 -10 -31 -31 -19 -22 11 -24 30 -7 47 14 14 38 -2 38
-28z m153 6 c16 -48 -27 -102 -60 -74 -18 15 -10 63 14 90 21 24 34 19 46 -16z
m-174 -52 c2 -2 1 -10 -3 -19 -9 -24 -40 -14 -44 14 -3 20 -1 22 20 16 13 -4
25 -9 27 -11z m140 -143 c-14 -58 -39 -69 -39 -19 0 29 36 85 48 74 2 -3 -2
-28 -9 -55z"/>
</g>
</svg>
